<?xml version="1.0" encoding="utf-8"?>
<!-- Generator: Adobe Illustrator 16.0.0, SVG Export Plug-In . SVG Version: 6.00 Build 0)  -->
<!DOCTYPE svg PUBLIC "-//W3C//DTD SVG 1.1//EN" "http://www.w3.org/Graphics/SVG/1.1/DTD/svg11.dtd">
<svg version="1.1" id="Capa_1" xmlns="http://www.w3.org/2000/svg" xmlns:xlink="http://www.w3.org/1999/xlink" x="0px" y="0px"
	 width="1080px" height="1080px" viewBox="0 0 1080 1080" enable-background="new 0 0 1080 1080" xml:space="preserve">
<g>
	<path fill="#5E8D9E" d="M204.971,882.494c0-1.511,1.204-2.721,2.761-2.721c1.518,0,2.723,1.21,2.723,2.721v26.229
		c0,1.526-1.206,2.723-2.723,2.723c-1.558,0-2.761-1.196-2.761-2.723V882.494z"/>
	<path fill="#5E8D9E" d="M233.524,882.584c0-1.512,1.203-2.764,2.761-2.764h0.58c1.342,0,2.103,0.671,2.859,1.6l15.612,20.212
		v-19.185c0-1.464,1.206-2.674,2.684-2.674c1.511,0,2.716,1.21,2.716,2.674v26.24c0,1.511-1.161,2.718-2.672,2.718h-0.233
		c-1.289,0-2.09-0.672-2.849-1.647l-16.069-20.79v19.808c0,1.475-1.197,2.671-2.673,2.671c-1.514,0-2.716-1.196-2.716-2.671V882.584
		z"/>
	<path fill="#5E8D9E" d="M282.688,907.749c-0.625-0.438-1.071-1.201-1.071-2.098c0-1.423,1.164-2.546,2.592-2.546
		c0.756,0,1.25,0.224,1.607,0.489c2.584,2.057,5.348,3.219,8.745,3.219c3.385,0,5.527-1.608,5.527-3.925v-0.093
		c0-2.229-1.249-3.433-7.049-4.764c-6.648-1.618-10.396-3.575-10.396-9.331v-0.092c0-5.35,4.461-9.063,10.669-9.063
		c3.921,0,7.091,1.032,9.902,2.9c0.625,0.363,1.207,1.117,1.207,2.19c0,1.427-1.161,2.542-2.596,2.542
		c-0.529,0-0.975-0.134-1.421-0.401c-2.412-1.562-4.736-2.359-7.188-2.359c-3.212,0-5.082,1.646-5.082,3.699v0.09
		c0,2.411,1.426,3.474,7.453,4.912c6.599,1.6,9.99,3.964,9.99,9.138v0.089c0,5.848-4.594,9.332-11.149,9.332
		C290.182,911.679,286.169,910.339,282.688,907.749z"/>
	<path fill="#5E8D9E" d="M333.774,885.091h-7.583c-1.433,0-2.539-1.163-2.539-2.54c0-1.393,1.106-2.553,2.539-2.553h20.748
		c1.384,0,2.5,1.16,2.5,2.553c0,1.377-1.115,2.54-2.5,2.54h-7.635v23.633c0,1.526-1.244,2.723-2.766,2.723
		c-1.513,0-2.764-1.196-2.764-2.723V885.091z"/>
	<path fill="#5E8D9E" d="M370.048,882.494c0-1.511,1.206-2.721,2.764-2.721c1.522,0,2.727,1.21,2.727,2.721v26.229
		c0,1.526-1.204,2.723-2.727,2.723c-1.559,0-2.764-1.196-2.764-2.723V882.494z"/>
	<path fill="#5E8D9E" d="M406.278,885.091h-7.584c-1.421,0-2.547-1.163-2.547-2.54c0-1.393,1.126-2.553,2.547-2.553h20.742
		c1.39,0,2.507,1.16,2.507,2.553c0,1.377-1.117,2.54-2.507,2.54h-7.628v23.633c0,1.526-1.248,2.723-2.761,2.723
		c-1.522,0-2.769-1.196-2.769-2.723V885.091z"/>
	<path fill="#5E8D9E" d="M441.744,897.979v-15.484c0-1.511,1.206-2.721,2.771-2.721c1.517,0,2.718,1.21,2.718,2.721v15.261
		c0,5.804,2.989,8.885,7.899,8.885c4.863,0,7.854-2.9,7.854-8.661v-15.484c0-1.511,1.207-2.721,2.767-2.721
		c1.514,0,2.718,1.21,2.718,2.721v15.214c0,9.328-5.258,14.007-13.424,14.007C446.925,911.715,441.744,907.036,441.744,897.979z"/>
	<path fill="#5E8D9E" d="M498.406,885.091h-7.578c-1.429,0-2.543-1.163-2.543-2.54c0-1.393,1.115-2.553,2.543-2.553h20.747
		c1.378,0,2.496,1.16,2.496,2.553c0,1.377-1.118,2.54-2.496,2.54h-7.633v23.633c0,1.526-1.251,2.723-2.762,2.723
		c-1.522,0-2.774-1.196-2.774-2.723V885.091z"/>
	<path fill="#5E8D9E" d="M531.294,895.709v-0.09c0-8.796,6.782-16.149,16.37-16.149c9.599,0,16.29,7.268,16.29,16.06v0.09
		c0,8.781-6.78,16.149-16.372,16.149C537.982,911.769,531.294,904.49,531.294,895.709z M558.195,895.709v-0.09
		c0-6.073-4.414-11.122-10.613-11.122c-6.204,0-10.532,4.962-10.532,11.032v0.09c0,6.058,4.415,11.061,10.614,11.061
		C553.868,906.68,558.195,901.768,558.195,895.709z"/>
	<path fill="#5E8D9E" d="M613.437,882.584c0-1.512,1.21-2.764,2.764-2.764h0.58c1.205,0,2.011,0.625,2.544,1.467l9.455,14.821
		l9.506-14.863c0.579-0.933,1.379-1.425,2.5-1.425h0.581c1.559,0,2.764,1.252,2.764,2.764v26.14c0,1.526-1.205,2.723-2.764,2.723
		c-1.467,0-2.728-1.248-2.728-2.723v-18.735l-7.629,11.465c-0.579,0.894-1.287,1.436-2.313,1.436c-0.983,0-1.691-0.542-2.276-1.436
		l-7.588-11.371v18.693c0,1.512-1.206,2.671-2.723,2.671c-1.518,0-2.673-1.159-2.673-2.671V882.584z"/>
	<path fill="#5E8D9E" d="M666.885,908.47v-25.702c0-1.568,1.205-2.77,2.77-2.77h18.151c1.343,0,2.454,1.119,2.454,2.449
		c0,1.385-1.111,2.458-2.454,2.458h-15.434v8.117H685.8c1.343,0,2.456,1.119,2.456,2.507c0,1.338-1.113,2.41-2.456,2.41h-13.428
		v8.378h15.662c1.34,0,2.458,1.118,2.458,2.458c0,1.378-1.118,2.449-2.458,2.449h-18.38
		C668.09,911.225,666.885,910.024,666.885,908.47z M677.058,876.697c0-0.313,0.181-0.709,0.354-0.984l2.542-3.923
		c0.492-0.801,1.206-1.293,2.148-1.293c1.421,0,3.206,0.892,3.206,1.742c0,0.485-0.304,0.931-0.759,1.338l-2.985,2.851
		c-1.071,0.981-1.918,1.201-3.169,1.201C677.638,877.629,677.058,877.276,677.058,876.697z"/>
	<path fill="#5E8D9E" d="M711.499,882.768c0-1.568,1.205-2.77,2.772-2.77h8.872c9.823,0,16.606,6.739,16.606,15.531v0.09
		c0,8.781-6.783,15.605-16.606,15.605h-8.872c-1.567,0-2.772-1.2-2.772-2.755V882.768z M723.144,906.231
		c6.558,0,10.844-4.415,10.844-10.522v-0.09c0-6.116-4.286-10.625-10.844-10.625h-6.154v21.237H723.144z"/>
	<path fill="#5E8D9E" d="M761.434,882.494c0-1.511,1.2-2.721,2.764-2.721c1.518,0,2.727,1.21,2.727,2.721v26.229
		c0,1.526-1.209,2.723-2.727,2.723c-1.563,0-2.764-1.196-2.764-2.723V882.494z"/>
	<path fill="#5E8D9E" d="M788.604,895.709v-0.09c0-8.882,6.645-16.149,16.108-16.149c4.812,0,7.979,1.422,10.702,3.514
		c0.579,0.452,1.075,1.206,1.075,2.193c0,1.514-1.204,2.673-2.727,2.673c-0.759,0-1.296-0.273-1.65-0.533
		c-2.14-1.743-4.462-2.819-7.451-2.819c-5.932,0-10.31,4.921-10.31,11.032v0.09c0,6.11,4.332,11.061,10.31,11.061
		c3.303,0,5.533-1.073,7.806-2.995c0.409-0.355,0.989-0.618,1.655-0.618c1.379,0,2.585,1.162,2.585,2.54
		c0,0.848-0.4,1.512-0.889,1.958c-2.942,2.589-6.295,4.204-11.335,4.204C795.382,911.769,788.604,904.67,788.604,895.709z"/>
	<path fill="#5E8D9E" d="M835.361,895.709v-0.09c0-8.796,6.777-16.149,16.375-16.149c9.589,0,16.28,7.268,16.28,16.06v0.09
		c0,8.781-6.777,16.149-16.372,16.149S835.361,904.49,835.361,895.709z M862.263,895.709v-0.09c0-6.073-4.419-11.122-10.618-11.122
		c-6.203,0-10.531,4.962-10.531,11.032v0.09c0,6.058,4.42,11.061,10.623,11.061C857.941,906.68,862.263,901.768,862.263,895.709z"/>
</g>
<g>
	<path fill="#5E8D9E" d="M288.735,857.934h-9.763v-42.649h-65.476v42.649h-9.051v-91.898h9.051v40.059h65.476v-40.059h9.763V857.934
		z"/>
	<path fill="#5E8D9E" d="M407.492,857.934h-11.628l-14.649-31.157h-46.66l-14.219,31.157h-9.624l43.797-91.898h8.327
		L407.492,857.934z M377.197,818.448l-19.243-40.209l-18.667,40.209H377.197z"/>
	<path fill="#5E8D9E" d="M498.388,857.934h-69.923v-91.898h9.613v83.428h60.31V857.934z"/>
	<path fill="#5E8D9E" d="M537.452,857.934h-9.907v-91.898h9.907V857.934z"/>
	<path fill="#5E8D9E" d="M646.585,775.078h-35.466v82.855h-9.336v-82.855h-35.609v-8.749h80.411V775.078z"/>
	<path fill="#5E8D9E" d="M754.572,828.639c0,18.382-11.198,30.16-42.223,30.441c-28.136,0.287-40.91-14.503-40.91-30.441v-62.604
		h9.467v61.602c0,15.078,16.088,22.539,31.443,22.539c14.795,0,32.748-7.034,32.748-22.539v-61.602h9.475V828.639z"/>
	<path fill="#5E8D9E" d="M869.157,830.653c0,17.947-18.809,29.141-41.349,29c-24.98-0.147-36.041-6.746-49.391-17.365l5.739-7.33
		c11.482,10.626,26.277,16.227,41.352,16.086c15.37-0.293,33.604-6.612,33.604-20.687c0-9.902-9.62-14.352-19.099-15.073
		l-32.449-2.295c-13.213-1.003-23.408-9.766-23.408-24.703c0-15.792,24.268-24.549,40.202-24.549
		c13.931,0,26.278,5.033,37.334,13.063l-5.598,6.174c-9.62-5.888-21.54-10.047-33.177-10.047
		c-12.484-0.147-29.574,5.888-29.574,16.071c-0.284,7.771,7.615,14.077,16.088,14.65l32.734,2.016
		C855.808,806.532,868.882,817.292,869.157,830.653z"/>
</g>
<polygon fill="#51828E" points="867.205,481.236 866.823,474.154 866.257,467.15 865.407,460.163 864.37,453.273 863.145,446.372 
	861.636,439.466 859.844,432.672 857.947,425.873 855.781,419.24 853.314,412.628 850.675,406.113 847.84,399.688 844.826,393.365 
	841.611,387.127 838.117,380.972 834.435,374.941 830.56,369.067 826.6,363.406 822.343,357.731 817.909,352.257 813.278,346.959 
	808.557,341.86 803.554,336.852 798.462,332.035 793.167,327.407 787.781,322.874 782.211,318.614 776.543,314.46 770.688,310.585 
	764.748,306.903 758.698,303.404 752.463,300 746.14,296.979 739.808,294.042 733.291,291.405 726.685,288.95 720.073,286.678 
	713.37,284.699 706.576,282.9 699.68,281.301 692.79,279.976 685.885,278.837 678.905,277.99 671.904,277.316 664.927,276.944 
	657.936,276.754 650.85,276.854 643.869,277.139 636.878,277.608 629.893,278.358 622.895,279.41 621.639,279.626 625.353,284.795 
	629.324,290.645 633.106,296.691 636.595,302.831 639.987,309.064 643.106,315.393 646.031,321.915 648.683,328.436 
	651.232,335.051 653.409,341.86 655.483,348.669 657.275,355.463 658.883,362.374 660.201,369.363 661.248,376.353 662.188,383.439 
	662.755,390.511 663.122,397.615 663.325,404.703 663.226,411.785 662.94,418.872 662.368,425.96 661.534,432.944 660.493,439.938 
	659.256,446.929 657.749,453.929 656.047,460.83 654.066,467.629 651.891,474.332 649.527,481.044 646.885,487.569 643.959,494.092 
	640.937,500.516 637.633,506.752 634.146,512.983 630.459,519.033 626.582,524.973 626.68,524.895 625.353,527.063 623.843,529.048 
	622.242,530.841 620.352,532.438 618.362,533.956 616.287,535.186 614.023,536.224 611.662,537.077 609.309,537.641 606.85,538.028 
	604.297,538.112 601.841,538.028 599.382,537.641 597.022,536.987 594.661,536.136 592.499,535.098 590.326,533.775 588.347,532.26 
	586.542,530.646 584.938,528.761 583.426,526.777 582.201,524.698 581.166,522.436 580.309,520.074 579.742,517.706 
	579.373,515.254 579.274,512.699 579.373,510.24 579.742,507.781 580.412,505.421 581.259,503.066 582.201,500.881 586.26,494.933 
	590.04,488.886 591.102,487.013 591.172,486.903 594.661,480.763 596.24,477.71 596.932,476.405 597.555,475.157 597.871,474.532 
	598.341,473.569 600.05,470.082 603.07,463.558 605.718,456.955 606.144,455.821 606.379,455.246 606.985,453.589 608.266,450.241 
	608.57,449.366 608.776,448.769 448.688,448.769 448.481,449.772 448.149,451.822 448.105,452.034 447.905,453.247 447.354,456.662 
	447.271,457.277 446.971,459.122 446.603,462.175 446.409,463.663 446.32,464.544 446.116,466.212 445.884,469.099 445.747,470.664 
	445.619,472.481 445.559,473.303 445.525,474.002 445.276,477.645 444.993,484.723 444.993,491.724 445.068,493.82 445.086,494.645 
	445.176,496.353 445.276,498.81 445.421,501.098 445.463,501.732 445.525,502.545 445.747,505.809 445.966,508.177 446.03,508.914 
	446.13,509.891 446.409,512.796 446.564,514.018 446.783,516.002 447.822,523.002 448.292,525.512 448.481,526.69 448.768,528.091 
	449.143,530.076 449.743,532.827 449.898,533.587 450.04,534.198 450.648,536.987 451.166,538.954 451.5,540.391 452.056,542.37 
	452.452,543.881 453.217,546.543 453.397,547.199 453.482,547.487 454.431,550.781 456.698,557.581 457.58,560.059 457.736,560.519 
	457.909,560.971 459.059,564.193 459.508,565.268 460.188,567.126 462.934,573.549 464.168,576.259 464.628,577.33 464.998,578.094 
	465.862,579.986 467.133,582.48 467.341,582.918 467.353,582.918 469.074,586.309 472.376,592.447 475.963,598.498 479.738,604.456 
	483.71,610.213 487.859,615.885 492.112,621.464 496.642,626.851 501.369,632.036 506.18,637.146 511.284,642.06 516.384,646.779 
	521.763,651.316 527.233,655.761 532.909,659.923 538.667,663.978 544.527,667.767 550.565,671.345 556.706,674.744 562.936,677.96 
	569.264,680.988 575.776,683.737 582.3,686.374 588.898,688.646 595.611,690.81 602.32,692.717 609.12,694.403 616.004,695.823 
	622.895,697.052 629.893,698.092 636.878,698.854 643.869,699.329 650.85,699.608 657.936,699.688 664.927,699.512 671.904,699.122 
	678.905,698.477 685.885,697.615 692.79,696.477 699.68,695.166 706.576,693.553 713.37,691.767 720.073,689.773 726.685,687.512 
	733.291,685.054 739.808,682.407 746.14,679.484 752.463,676.449 758.698,673.063 764.748,669.548 770.688,665.881 776.543,662.005 
	782.211,657.842 787.781,653.588 793.167,649.051 798.462,644.419 803.554,639.6 808.557,634.602 813.278,629.497 817.909,624.215 
	822.343,618.722 826.6,613.047 830.56,607.38 834.435,601.521 838.117,595.48 841.611,589.336 844.826,583.088 847.84,576.774 
	850.675,570.334 853.314,563.828 855.781,557.191 857.947,550.58 859.844,543.781 861.636,536.987 863.145,530.076 864.37,523.181 
	865.407,516.289 866.257,509.299 866.823,502.301 867.205,495.21 867.297,488.242 "/>
<polygon fill="#7BAFC7" points="436.021,577.236 432.238,571.185 428.749,565.047 425.34,558.81 422.229,552.482 419.295,545.961 
	416.651,539.445 414.106,532.827 411.93,526.033 409.859,519.224 408.063,512.42 406.455,505.524 405.135,498.523 404.095,491.542 
	403.157,484.452 402.588,477.366 402.212,470.275 402.022,463.198 402.116,456.09 402.404,449.019 402.966,441.931 403.813,434.93 
	404.853,427.942 406.082,420.945 407.594,413.955 409.286,407.064 411.279,400.252 413.45,393.542 415.814,386.84 418.456,380.317 
	421.377,373.796 424.4,367.378 427.709,361.14 431.198,354.897 434.878,348.857 438.762,342.902 439.985,340.829 441.494,338.836 
	443.101,337.049 444.993,335.436 446.971,333.919 449.052,332.689 451.315,331.657 453.678,330.808 456.037,330.24 458.496,329.865 
	461.038,329.768 463.503,329.865 465.952,330.24 468.315,330.894 470.672,331.748 472.847,332.796 475.021,334.109 476.996,335.614 
	478.803,337.229 480.393,339.124 481.914,341.104 483.138,343.177 484.181,345.451 485.029,347.807 485.598,350.181 
	485.971,352.626 486.071,355.182 485.971,357.641 485.598,360.093 484.935,362.454 484.081,364.818 483.138,366.99 479.075,372.942 
	475.304,378.988 474.264,380.802 472.376,384.005 469.074,390.152 465.862,396.468 463.19,402.334 462.264,404.318 461.408,406.481 
	460.188,409.315 458.361,414.252 457.078,417.635 455.584,422.068 616.081,422.068 616.199,421.511 616.73,418.532 617.24,415.841 
	618.362,408.753 619.222,401.667 619.258,401.188 619.311,400.73 619.879,393.73 620.256,386.645 620.331,381.01 620.352,380.317 
	620.352,379.981 620.352,379.662 620.256,372.664 619.879,365.583 619.311,358.585 618.987,355.884 618.559,351.882 
	617.524,344.885 616.199,337.797 614.685,330.894 612.891,323.994 612.125,321.347 611.001,317.292 608.834,310.682 607.436,306.91 
	606.274,303.691 603.544,297.075 600.704,290.555 597.998,284.964 597.965,284.974 597.871,284.795 594.661,278.559 
	591.172,272.413 587.489,266.363 583.62,260.495 579.643,254.827 575.405,249.153 570.971,243.688 566.337,238.394 561.608,233.29 
	556.608,228.276 551.506,223.467 546.213,218.825 540.838,214.287 535.264,210.049 529.605,205.889 523.747,202.021 
	517.793,198.332 511.754,194.844 505.518,191.435 499.197,188.407 492.866,185.486 486.355,182.835 479.738,180.378 473.13,178.11 
	466.425,176.128 459.621,174.322 452.727,172.724 445.842,171.397 438.943,170.258 431.954,169.424 424.967,168.751 
	417.974,168.363 410.995,168.186 403.912,168.282 396.917,168.571 389.938,169.037 382.937,169.794 375.958,170.821 
	369.063,172.062 362.165,173.468 355.368,175.183 348.666,177.072 341.959,179.239 335.347,181.51 328.838,184.157 322.317,186.887 
	315.998,189.914 309.751,193.13 303.625,196.54 297.581,200.13 291.728,203.906 285.961,207.973 280.291,212.125 274.816,216.575 
	269.438,221.094 264.338,225.825 259.235,230.732 254.425,235.838 249.697,241.042 245.17,246.429 240.919,252.006 236.764,257.681 
	232.8,263.438 229.021,269.384 225.436,275.434 222.125,281.581 218.911,287.897 215.981,294.333 213.247,300.758 210.791,307.37 
	208.532,313.991 206.451,320.69 204.562,327.495 202.956,334.304 201.536,341.197 200.408,348.104 199.457,355.094 198.806,362.092 
	198.333,369.067 198.038,376.151 198.038,383.152 198.333,390.239 198.806,397.231 199.457,404.221 200.408,411.228 
	201.536,418.118 202.956,425.019 204.562,431.819 206.451,438.612 208.532,445.331 210.791,451.946 213.247,458.559 
	215.981,464.983 218.911,471.409 222.125,477.749 225.436,483.881 229.021,489.925 232.8,495.884 236.764,501.649 240.919,507.315 
	245.17,512.886 249.697,518.269 254.425,523.468 259.235,528.574 264.338,533.5 269.438,538.209 274.816,542.749 280.291,547.199 
	285.961,551.346 291.728,555.414 297.581,559.197 303.625,562.776 309.751,566.186 315.998,569.389 322.317,572.422 
	328.838,575.166 335.347,577.807 341.959,580.072 348.666,582.246 355.368,584.139 362.165,585.83 369.063,587.254 375.958,588.484 
	382.937,589.522 389.938,590.279 396.917,590.753 403.912,591.029 410.995,591.141 417.974,590.943 424.967,590.558 
	431.954,589.911 438.943,589.049 443.709,588.277 439.985,583.088 "/>
</svg>
